<svg viewBox="0 0 200 187" xmlns="http://www.w3.org/2000/svg" xmlns:xlink="http://www.w3.org/1999/xlink">
    <mask id="mask0" mask-type="alpha">
        <!-- <path d="M190.312 36.4879C206.582 62.1187 201.309 102.826 182.328 134.186C163.346 165.547 
        130.807 187.559 100.226 186.353C69.6454 185.297 41.0228 161.023 21.7403 129.362C2.45775 
        97.8511 -7.48481 59.1033 6.67581 34.5279C20.9871 10.1032 59.7028 -0.149132 97.9666 
        0.00163737C136.23 0.303176 174.193 10.857 190.312 36.4879Z"/> -->
        <path fill="#FF0066" d="M40,-59.2C51.7,-46.6,60.8,-34.7,68.7,-20.1C76.5,-5.5,83,11.8,77.1,23.6C71.2,35.3,53,41.6,38.1,48.8C23.2,56,11.6,64.2,-1.2,65.8C-14,67.5,-28,62.7,-38.4,54C-48.7,45.3,-55.3,32.7,-56.4,20.4C-57.4,8.2,-52.9,-3.8,-51.7,-19.6C-50.4,-35.4,-52.4,-55.1,-44.3,-68.9C-36.3,-82.7,-18.1,-90.5,-2,-87.7C14.2,-85,28.3,-71.7,40,-59.2Z" transform="translate(100 100)" />
    </mask>
    <g mask="url(#mask0)">
        <path d="M190.312 36.4879C206.582 62.1187 201.309 102.826 182.328 134.186C163.346 
        165.547 130.807 187.559 100.226 186.353C69.6454 185.297 41.0228 161.023 21.7403 
        129.362C2.45775 97.8511 -7.48481 59.1033 6.67581 34.5279C20.9871 10.1032 59.7028 
        -0.149132 97.9666 0.00163737C136.23 0.303176 174.193 10.857 190.312 36.4879Z" />
        <image href="" />
    </g>
</svg>